<?xml version="1.0" encoding="utf-8"?>
<!-- Generator: Adobe Illustrator 15.0.0, SVG Export Plug-In . SVG Version: 6.00 Build 0)  -->
<!DOCTYPE svg PUBLIC "-//W3C//DTD SVG 1.1//EN" "http://www.w3.org/Graphics/SVG/1.1/DTD/svg11.dtd">
<svg version="1.1" id="Layer_1" xmlns="http://www.w3.org/2000/svg" xmlns:xlink="http://www.w3.org/1999/xlink" x="0px" y="0px"
	 width="1000px" height="800px" viewBox="0 0 1000 800" enable-background="new 0 0 1000 800" xml:space="preserve">
<g>
	<path d="M678.1172,417.4932V701.21H320.6104V417.4932H678.1172 M702.9268,352.6084H296.437
		c-22.2651,0-40.7119,18.4487-40.7119,40.7119v332.6982c0,22.2637,18.4468,40.7119,40.7119,40.7119h406.4897
		c22.2646,0,40.7119-18.4482,40.7119-40.7119V393.3203C743.0029,370.4199,725.1914,352.6084,702.9268,352.6084L702.9268,352.6084z"
		/>
	<g>
		<path d="M680.0254,228.562h-57.8887v-14.6304c0-68.0669-55.3418-122.7739-122.7725-122.7739
			c-68.0679,0-122.7734,55.3433-122.7734,122.7739v119.5928h-57.8882V213.9316c0-99.873,81.4248-180.6621,180.6616-180.6621
			c99.2363,0,180.6611,81.4248,180.6611,180.6621V228.562L680.0254,228.562z"/>
	</g>
	<path d="M541.9854,525.6357c0-23.5371-19.085-42.6211-42.6211-42.6211c-23.5371,0-42.6216,19.084-42.6216,42.6211
		c0,15.2695,7.6328,27.9883,19.7212,35.625v59.7959c0,8.2686,6.9971,15.2666,15.2666,15.2666h15.2666
		c8.2705,0,15.2666-6.998,15.2666-15.2666v-59.7959C534.3516,554.2627,541.9854,540.9053,541.9854,525.6357z"/>
</g>
</svg>
