<?xml version="1.0" encoding="utf-8"?>
<!-- Generator: Adobe Illustrator 15.0.0, SVG Export Plug-In . SVG Version: 6.00 Build 0)  -->
<!DOCTYPE svg PUBLIC "-//W3C//DTD SVG 1.1//EN" "http://www.w3.org/Graphics/SVG/1.1/DTD/svg11.dtd">
<svg version="1.1" id="Layer_1" xmlns="http://www.w3.org/2000/svg" xmlns:xlink="http://www.w3.org/1999/xlink" x="0px" y="0px"
	 width="1000px" height="800px" viewBox="0 0 1000 800" enable-background="new 0 0 1000 800" xml:space="preserve">
<g>
	<path d="M686.9941,395.6665v297.3237H312.3398V395.6665H686.9941 M712.9932,327.6685H287.0078
		c-23.3335,0-42.665,19.334-42.665,42.666v348.6538c0,23.332,19.3315,42.666,42.665,42.666h425.9854
		c23.3311,0,42.665-19.334,42.665-42.666V370.3345C754.9912,346.3354,736.3242,327.6685,712.9932,327.6685L712.9932,327.6685z"/>
	<g>
		<path d="M688.9932,307.6704h-60.6641v-79.998c0-71.3301-57.998-128.6616-128.6616-128.6616
			c-71.332,0-128.6626,57.9966-128.6626,128.6616v79.998h-60.6646v-79.998c0-104.6636,85.3306-189.3262,189.3271-189.3262
			c103.9956,0,189.3257,85.3296,189.3257,189.3262V307.6704L688.9932,307.6704z"/>
	</g>
	<path d="M544.332,508.9961c0-24.666-20-44.6641-44.6646-44.6641c-24.666,0-44.6665,19.998-44.6665,44.6641
		c0,16,8,29.332,20.6675,37.332v62.6641c0,8.666,7.3325,15.998,15.9995,15.998h15.998c8.666,0,15.999-7.332,15.999-15.998v-62.6641
		C536.3311,538.9941,544.332,524.9961,544.332,508.9961z"/>
</g>
</svg>
