<?xml version="1.0" encoding="utf-8"?>
<!-- Generator: Adobe Illustrator 18.1.1, SVG Export Plug-In . SVG Version: 6.00 Build 0)  -->
<svg version="1.1" id="Layer_1" xmlns="http://www.w3.org/2000/svg" xmlns:xlink="http://www.w3.org/1999/xlink" x="0px" y="0px"
	 viewBox="88 76 184 208" enable-background="new 88 76 184 208" xml:space="preserve">
<g>
	<g>
		<path d="M191.5,184.3c-0.7-0.9-1.7-1.4-2.8-1.4h-20.5c-1.1,0-2.2,0.5-2.8,1.4c-12.7,16.4-2.1,29.2,0.1,31.6
			c0.7,0.7,1.6,1.1,2.6,1.1h20.7c1,0,1.9-0.4,2.6-1.1c1.3-1.4,4.5-5.3,5.7-10.8C198.7,198.2,196.8,191.2,191.5,184.3z M173.2,201.3
			h-3.4v-9.5c0-0.8,0.8-1.5,1.7-1.5c0.9,0,1.7,0.7,1.7,1.5V201.3z M181.4,210.3h-6v-2.5c0-1.5,1.3-2.7,3-2.7c1.6,0,3,1.2,3,2.7
			V210.3z M187.1,201.3h-3.4v-9.5c0-0.8,0.8-1.5,1.7-1.5s1.7,0.7,1.7,1.5V201.3z"/>
		<path d="M191.5,143.4c-0.7-0.9-1.7-1.4-2.8-1.4h-20.5c-1.1,0-2.2,0.5-2.8,1.4c-12.7,16.4-2.1,29.2,0.1,31.6
			c0.7,0.7,1.6,1.1,2.6,1.1h20.7c1,0,1.9-0.4,2.6-1.1c1.3-1.4,4.5-5.3,5.7-10.8C198.7,157.2,196.8,150.2,191.5,143.4z M173.2,160.4
			h-3.4v-9.5c0-0.8,0.8-1.5,1.7-1.5c0.9,0,1.7,0.7,1.7,1.5V160.4z M181.4,169.3h-6v-2.5c0-1.5,1.3-2.7,3-2.7c1.6,0,3,1.2,3,2.7
			V169.3z M187.1,160.4h-3.4v-9.5c0-0.8,0.8-1.5,1.7-1.5s1.7,0.7,1.7,1.5V160.4z"/>
	</g>
	<g>
		<path d="M208.1,233.1h-58.5c-2.9,0-5.2-2.3-5.2-5.2v-95.9c0-2.9,2.3-5.2,5.2-5.2h58.5c2.9,0,5.2,2.3,5.2,5.2v95.9
			C213.3,230.8,210.9,233.1,208.1,233.1z M152.1,225.5h53.5v-90.9h-53.5V225.5z"/>
	</g>
</g>
</svg>
