<?xml version="1.0" encoding="utf-8"?>
<!-- Generator: Adobe Illustrator 15.0.0, SVG Export Plug-In . SVG Version: 6.00 Build 0)  -->
<!DOCTYPE svg PUBLIC "-//W3C//DTD SVG 1.1//EN" "http://www.w3.org/Graphics/SVG/1.1/DTD/svg11.dtd">
<svg version="1.1" id="Layer_1" xmlns="http://www.w3.org/2000/svg" xmlns:xlink="http://www.w3.org/1999/xlink" x="0px" y="0px"
	 width="1000px" height="800px" viewBox="0 0 1000 800" enable-background="new 0 0 1000 800" xml:space="preserve">
<g>
	<g>
		<path d="M574.8135,431.5518c-4.2725-5.4932-10.376-8.5439-17.0898-8.5439H432.5928c-6.7139,0-13.4277,3.0508-17.0918,8.5439
			c-77.5186,100.1045-12.8164,178.2344,0.6104,192.8848c4.2734,4.2725,9.7676,6.7139,15.8711,6.7139H558.333
			c6.1045,0,11.5986-2.4414,15.8701-6.7139c7.9346-8.5459,27.4688-32.3516,34.793-65.9238
			C618.7617,516.3965,607.165,473.6699,574.8135,431.5518z M463.1113,535.3184h-20.752V477.332
			c0-4.8838,4.8828-9.1562,10.377-9.1562s10.376,4.2725,10.376,9.1562v57.9863H463.1113z M513.165,590.2529h-36.624v-15.2588
			c0-9.1553,7.9355-16.4814,18.3115-16.4814c9.7666,0,18.3125,7.3262,18.3125,16.4814V590.2529z M547.957,535.3184h-20.7539V477.332
			c0-4.8838,4.8838-9.1562,10.3779-9.1562c5.4922,0,10.376,4.2725,10.376,9.1562V535.3184z"/>
		<path d="M574.8135,181.9014c-4.2725-5.4922-10.376-8.5459-17.0898-8.5459H432.5928c-6.7139,0-13.4277,3.0537-17.0918,8.5459
			c-77.5186,100.1045-12.8164,178.2344,0.6104,192.8848c4.2734,4.2725,9.7676,6.7139,15.8711,6.7139H558.333
			c6.1045,0,11.5986-2.4414,15.8701-6.7139c7.9346-8.5449,27.4688-32.3506,34.793-65.9229
			C618.7617,266.1357,607.165,223.4087,574.8135,181.9014z M463.1113,285.6685h-20.752v-57.9868
			c0-4.8833,4.8828-9.1562,10.377-9.1562s10.376,4.2729,10.376,9.1562v57.9868H463.1113z M513.165,339.9932h-36.624v-15.2598
			c0-9.1553,7.9355-16.4814,18.3115-16.4814c9.7666,0,18.3125,7.3262,18.3125,16.4814V339.9932z M547.957,285.6685h-20.7539
			v-57.9868c0-4.8833,4.8838-9.1562,10.3779-9.1562c5.4922,0,10.376,4.2729,10.376,9.1562V285.6685z"/>
	</g>
	<g>
		<path d="M676.1396,729.4229H319.0605c-17.7021,0-31.7407-14.0381-31.7407-31.7402V112.3174
			c0-17.7012,14.0386-31.7402,31.7407-31.7402h357.0791c17.7002,0,31.7402,14.0391,31.7402,31.7402v585.3652
			C707.8799,715.3848,693.2295,729.4229,676.1396,729.4229z M334.3198,683.0332h326.5601V128.1875H334.3198V683.0332z"/>
	</g>
</g>
</svg>
