<?xml version="1.0" encoding="utf-8"?>
<!-- Generator: Adobe Illustrator 18.1.1, SVG Export Plug-In . SVG Version: 6.00 Build 0)  -->
<svg version="1.1" id="Layer_1" xmlns="http://www.w3.org/2000/svg" xmlns:xlink="http://www.w3.org/1999/xlink" x="0px" y="0px"
	 viewBox="88 76 184 208" enable-background="new 88 76 184 208" xml:space="preserve">
<g>
	<g>
		<path d="M178.5,107.9c0.2,0.4-0.1,0.8-0.5,0.8h-6.6c-0.4,0-0.7,0.5-0.5,0.8l6.4,12.3c0.3,0.5,1.1,0.2,1-0.4l-1.6-7.5
			c-0.1-0.3,0.2-0.7,0.6-0.7h6.7c0.4,0,0.6-0.4,0.5-0.7c0,0-3.9-8.1-6-13.6c-0.4-0.9-1.1-0.5-1,0L178.5,107.9z"/>
	</g>
	<g>
		<g>
			<path d="M191.1,184.3c-0.7-0.9-1.7-1.4-2.8-1.4h-20.5c-1.1,0-2.2,0.5-2.8,1.4c-12.7,16.4-2.1,29.2,0.1,31.6
				c0.7,0.7,1.6,1.1,2.6,1.1h20.7c1,0,1.9-0.4,2.6-1.1c1.3-1.4,4.5-5.3,5.7-10.8C198.3,198.2,196.4,191.2,191.1,184.3z M172.8,201.3
				h-3.4v-9.5c0-0.8,0.8-1.5,1.7-1.5c0.9,0,1.7,0.7,1.7,1.5V201.3z M181,210.3h-6v-2.5c0-1.5,1.3-2.7,3-2.7c1.6,0,3,1.2,3,2.7V210.3
				z M186.7,201.3h-3.4v-9.5c0-0.8,0.8-1.5,1.7-1.5s1.7,0.7,1.7,1.5V201.3z"/>
			<path d="M191.1,143.4c-0.7-0.9-1.7-1.4-2.8-1.4h-20.5c-1.1,0-2.2,0.5-2.8,1.4c-12.7,16.4-2.1,29.2,0.1,31.6
				c0.7,0.7,1.6,1.1,2.6,1.1h20.7c1,0,1.9-0.4,2.6-1.1c1.3-1.4,4.5-5.3,5.7-10.8C198.3,157.2,196.4,150.2,191.1,143.4z M172.8,160.4
				h-3.4v-9.5c0-0.8,0.8-1.5,1.7-1.5c0.9,0,1.7,0.7,1.7,1.5V160.4z M181,169.3h-6v-2.5c0-1.5,1.3-2.7,3-2.7c1.6,0,3,1.2,3,2.7V169.3
				z M186.7,160.4h-3.4v-9.5c0-0.8,0.8-1.5,1.7-1.5s1.7,0.7,1.7,1.5V160.4z"/>
		</g>
		<g>
			<path d="M207.7,233.1h-58.5c-2.9,0-5.2-2.3-5.2-5.2v-95.9c0-2.9,2.3-5.2,5.2-5.2h58.5c2.9,0,5.2,2.3,5.2,5.2v95.9
				C212.9,230.8,210.5,233.1,207.7,233.1z M151.7,225.5h53.5v-90.9h-53.5V225.5z"/>
		</g>
	</g>
</g>
</svg>
