<?xml version="1.0" encoding="utf-8"?>
<!-- Generator: Adobe Illustrator 15.0.0, SVG Export Plug-In . SVG Version: 6.00 Build 0)  -->
<!DOCTYPE svg PUBLIC "-//W3C//DTD SVG 1.1//EN" "http://www.w3.org/Graphics/SVG/1.1/DTD/svg11.dtd">
<svg version="1.1" id="Layer_1" xmlns="http://www.w3.org/2000/svg" xmlns:xlink="http://www.w3.org/1999/xlink" x="0px" y="0px"
	 width="1000px" height="800px" viewBox="0 0 1000 800" enable-background="new 0 0 1000 800" xml:space="preserve">
<g>
	<g>
		<path d="M500.2461,53.2056c0.9766,1.9473-0.4902,3.8936-2.4434,3.8936h-32.2466c-1.9526,0-3.4189,2.4331-2.4419,3.8936
			l31.2676,59.8599c1.4673,2.4341,5.374,0.9731,4.8857-1.9463l-7.8159-36.5c-0.4893-1.4604,0.9761-3.4067,2.9302-3.4067h32.7344
			c1.9541,0,2.9316-1.9468,2.4414-3.4058c0,0-19.0527-39.4214-29.3115-66.1875c-1.9546-4.3809-5.375-2.4336-4.8853,0
			L500.2461,53.2056z"/>
	</g>
	<g>
		<g>
			<path d="M561.8057,425.0195c-3.4229-4.3809-8.3057-6.8135-13.6816-6.8135H447.9688c-5.375,0-10.748,2.4326-13.6797,6.8135
				c-62.0469,79.8135-10.2612,142.1074,0.4883,153.7861c3.4199,3.4082,7.8164,5.3545,12.7031,5.3545h101.1318
				c4.8877,0,9.2822-1.9463,12.7041-5.3545c6.3496-6.8115,21.9854-25.792,27.8477-52.5596
				C596.9814,492.667,587.6992,458.6006,561.8057,425.0195z M472.397,507.7529h-16.6118v-46.2334
				c0-3.8945,3.9087-7.2998,8.3062-7.2998c4.396,0,8.3057,3.4053,8.3057,7.2998V507.7529z M512.459,551.5518h-29.3135v-12.165
				c0-7.2998,6.3516-13.1406,14.6572-13.1406c7.8174,0,14.6562,5.8408,14.6562,13.1406V551.5518z M540.3076,507.7529h-16.6113
				v-46.2334c0-3.8945,3.9082-7.2998,8.3057-7.2998s8.3057,3.4053,8.3057,7.2998V507.7529L540.3076,507.7529z"/>
			<path d="M561.8057,225.9727c-3.4229-4.3794-8.3057-6.8135-13.6816-6.8135H447.9688c-5.375,0-10.748,2.4341-13.6797,6.8135
				c-62.0469,79.814-10.2612,142.1069,0.4883,153.7886c3.4199,3.4058,7.8164,5.3521,12.7031,5.3521h101.1318
				c4.8877,0,9.2822-1.9463,12.7041-5.3521c6.3496-6.8149,21.9854-25.7939,27.8477-52.5615
				C596.9814,293.1333,587.6992,259.0669,561.8057,225.9727z M472.397,308.7061h-16.6118v-46.2329
				c0-3.8931,3.9087-7.2998,8.3062-7.2998c4.396,0,8.3057,3.4062,8.3057,7.2998V308.7061z M512.459,352.0195h-29.3135v-12.167
				c0-7.2993,6.3516-13.1396,14.6572-13.1396c7.8174,0,14.6562,5.8403,14.6562,13.1396V352.0195z M540.3076,308.7061h-16.6113
				v-46.2329c0-3.8931,3.9082-7.2998,8.3057-7.2998s8.3057,3.4062,8.3057,7.2998V308.7061L540.3076,308.7061z"/>
		</g>
		<g>
			<path d="M642.9043,662.5137H357.0952c-14.1675,0-25.4053-11.1943-25.4053-25.3076V170.4937
				c0-14.1138,11.2378-25.3076,25.4053-25.3076h285.8091c14.1689,0,25.4062,11.1938,25.4062,25.3076v466.7124
				C668.3105,651.3193,656.5859,662.5137,642.9043,662.5137z M369.3105,625.5273h261.3799V183.1465H369.3105V625.5273z"/>
		</g>
	</g>
</g>
</svg>
