<?xml version="1.0" encoding="utf-8"?>
<!-- Generator: Adobe Illustrator 18.1.1, SVG Export Plug-In . SVG Version: 6.00 Build 0)  -->
<svg version="1.1" id="Layer_1" xmlns="http://www.w3.org/2000/svg" xmlns:xlink="http://www.w3.org/1999/xlink" x="0px" y="0px"
	 viewBox="88 76 184 208" enable-background="new 88 76 184 208" xml:space="preserve">
<g>
	<path d="M218.6,150h-76.1c-3.7,0-6.7,3-6.7,6.7v67.1c0,3.7,3,6.7,6.7,6.7h76.1c3.7,0,6.7-3,6.7-6.7v-67.1
		C225.3,153,222.3,150,218.6,150z M213.6,213.5c0,2.7-2.2,5-5,5h-56.2c-2.7,0-5-2.2-5-5v-38.2c0-2.7,2.2-5,5-5h56.2c2.7,0,5,2.2,5,5
		V213.5z M210.9,163.5h-60.8c-1.6,0-2.9-1.3-2.9-2.9c0-1.6,1.3-2.9,2.9-2.9h60.8c1.6,0,2.9,1.3,2.9,2.9
		C213.8,162.2,212.5,163.5,210.9,163.5z"/>
	<path d="M212.9,131.6h-64.7c-2.5,0-4.6,2-4.6,4.6v11.1h73.9v-11.1C217.5,133.7,215.4,131.6,212.9,131.6z M195.7,143.6h-0.1
		c-2,0-3.7-1.7-3.7-3.7s1.7-3.7,3.7-3.7h0.1c2,0,3.7,1.7,3.7,3.7C199.4,141.9,197.7,143.6,195.7,143.6z M208.5,143.6h-0.1
		c-2,0-3.7-1.7-3.7-3.7s1.7-3.7,3.7-3.7h0.1c2,0,3.7,1.7,3.7,3.7C212.2,141.9,210.5,143.6,208.5,143.6z"/>
</g>
</svg>
