<?xml version="1.0" encoding="utf-8"?>
<!-- Generator: Adobe Illustrator 18.1.1, SVG Export Plug-In . SVG Version: 6.00 Build 0)  -->
<svg version="1.1" id="Layer_1" xmlns="http://www.w3.org/2000/svg" xmlns:xlink="http://www.w3.org/1999/xlink" x="0px" y="0px"
	 viewBox="88 76 184 208" enable-background="new 88 76 184 208" xml:space="preserve">
<g>
	<path d="M218.1,150.5h-76.1c-3.7,0-6.7,3-6.7,6.7v67.1c0,3.7,3,6.7,6.7,6.7h76.1c3.7,0,6.7-3,6.7-6.7v-67.1
		C224.8,153.5,221.8,150.5,218.1,150.5z M213,214c0,2.7-2.2,5-5,5h-56.2c-2.7,0-5-2.2-5-5v-38.2c0-2.7,2.2-5,5-5h56.2
		c2.7,0,5,2.2,5,5V214z M210.4,164.1h-60.8c-1.6,0-2.9-1.3-2.9-2.9s1.3-2.9,2.9-2.9h60.8c1.6,0,2.9,1.3,2.9,2.9
		S212,164.1,210.4,164.1z"/>
	<path d="M212.4,132.2h-64.7c-2.5,0-4.6,2-4.6,4.6v11.1h73.9v-11.1C216.9,134.2,214.9,132.2,212.4,132.2z M195.2,144.1H195
		c-2,0-3.7-1.7-3.7-3.7c0-2,1.7-3.7,3.7-3.7h0.1c2,0,3.7,1.7,3.7,3.7C198.8,142.5,197.2,144.1,195.2,144.1z M207.9,144.1h-0.1
		c-2,0-3.7-1.7-3.7-3.7c0-2,1.7-3.7,3.7-3.7h0.1c2,0,3.7,1.7,3.7,3.7C211.6,142.5,210,144.1,207.9,144.1z"/>
	<g>
		<path d="M163.7,204.9c-0.6,0-1.2-0.2-1.7-0.6c-0.3-0.3-3-2.9-3-6.6c0-1.6,0.5-4,3-6.4c0.4-0.4,1.3-1.6,1.2-2.7
			c-0.1-0.9-0.8-1.8-2.1-2.8c-1.1-0.8-1.4-2.3-0.6-3.4c0.8-1.1,2.3-1.4,3.4-0.6c2.6,1.8,4,4,4.2,6.5c0.3,3.7-2.5,6.3-2.8,6.6
			c-1,0.9-1.4,1.9-1.4,2.8c0,1.4,1.1,2.7,1.5,3.1c1,0.9,1,2.5,0.1,3.5C165,204.6,164.3,204.9,163.7,204.9z"/>
	</g>
	<g>
		<path d="M180,204.9c-0.6,0-1.2-0.2-1.7-0.6c-0.3-0.3-3-2.9-3-6.6c0-1.6,0.5-4,3-6.4c0.4-0.4,1.3-1.6,1.2-2.7
			c-0.1-0.9-0.8-1.8-2.1-2.8c-1.1-0.8-1.4-2.3-0.6-3.4c0.8-1.1,2.3-1.4,3.4-0.6c2.6,1.8,4,4,4.2,6.5c0.3,3.7-2.5,6.3-2.8,6.6
			c-1,0.9-1.4,1.9-1.4,2.8c0,1.4,1.1,2.7,1.5,3.1c1,0.9,1,2.5,0.1,3.5C181.3,204.6,180.7,204.9,180,204.9z"/>
	</g>
	<g>
		<path d="M196.3,204.9c-0.6,0-1.2-0.2-1.7-0.6c-0.3-0.3-3-2.9-3-6.6c0-1.6,0.5-4,3-6.4c0.4-0.4,1.3-1.6,1.2-2.7
			c-0.1-0.9-0.8-1.8-2.1-2.8c-1.1-0.8-1.4-2.3-0.6-3.4c0.8-1.1,2.3-1.4,3.4-0.6c2.6,1.8,4,4,4.2,6.5c0.3,3.7-2.5,6.3-2.8,6.6
			c-1,0.9-1.4,1.9-1.4,2.8c0,1.4,1.1,2.7,1.5,3.1c1,0.9,1,2.5,0.1,3.5C197.6,204.6,197,204.9,196.3,204.9z"/>
	</g>
</g>
</svg>
