<?xml version="1.0" encoding="utf-8"?>
<!-- Generator: Adobe Illustrator 15.0.0, SVG Export Plug-In . SVG Version: 6.00 Build 0)  -->
<!DOCTYPE svg PUBLIC "-//W3C//DTD SVG 1.1//EN" "http://www.w3.org/Graphics/SVG/1.1/DTD/svg11.dtd">
<svg version="1.1" id="Layer_1" xmlns="http://www.w3.org/2000/svg" xmlns:xlink="http://www.w3.org/1999/xlink" x="0px" y="0px"
	 width="1000px" height="800px" viewBox="0 0 1000 800" enable-background="new 0 0 1000 800" xml:space="preserve">
<g>
	<path fill="#010101" d="M807.8398,157.8701H221.5376c-28.5059,0-51.6182,23.1143-51.6182,51.6201v516.9629
		c0,28.5059,23.1123,51.6191,51.6182,51.6191h586.3022c28.5078,0,51.6191-23.1133,51.6191-51.6191V209.4897
		C859.459,180.9844,836.3477,157.8701,807.8398,157.8701z M768.5488,647.0996c0,20.8008-16.9492,38.5215-38.5215,38.5215H297.04
		c-20.7998,0-38.521-16.9512-38.521-38.5215V352.7905c0-20.8003,16.9502-38.521,38.521-38.521h432.9873
		c20.8008,0,38.5215,16.9502,38.5215,38.521V647.0996z M748.5156,262.6489H280.0918c-12.3281,0-22.3438-10.0151-22.3438-22.3413
		c0-12.3281,10.0156-22.3438,22.3438-22.3438h468.4238c12.3281,0,22.3438,10.0161,22.3438,22.3438
		C770.8594,252.6333,760.8438,262.6489,748.5156,262.6489z"/>
	<path fill="#010101" d="M763.9258,16.8809H265.4536c-19.2607,0-35.4404,15.4087-35.4404,35.4395v85.5186h569.3521v-85.519
		C798.5957,32.2896,783.1855,16.8809,763.9258,16.8809z M631.4121,108.5625h-1.543c-15.4082,0-28.5059-13.0967-28.5059-28.5059
		c0-15.4087,13.0977-28.5054,28.5059-28.5054h0.7715c15.4082,0,28.5059,13.0967,28.5059,28.5054
		C659.1465,96.2363,646.8203,108.5625,631.4121,108.5625z M729.2559,108.5625h-0.7715c-15.4082,0-28.5039-13.0972-28.5039-28.5059
		s13.0957-28.5054,28.5039-28.5054h0.7715c15.4082,0,28.5059,13.0967,28.5059,28.5054
		C757.7617,96.2363,745.4355,108.5625,729.2559,108.5625z"/>
	<g>
		<path fill="#010101" d="M388.7231,576.9883c-4.6226,0-9.2456-1.5391-13.0972-4.6211
			c-2.3125-2.3125-23.1143-22.3438-23.1143-50.8496c0-12.3281,3.854-30.8164,23.1143-49.3086
			c3.0815-3.082,10.0156-12.3281,9.2446-20.8008c-0.77-6.9355-6.1631-13.8672-16.1792-21.5742
			c-8.4741-6.1641-10.7866-17.7188-4.6226-26.1934c6.1641-8.4761,17.7192-10.7881,26.1958-4.624
			c20.0317,13.8682,30.8159,30.8174,32.3569,50.0791c2.3125,28.5078-19.2598,48.5391-21.5723,50.8496
			c-7.7041,6.9336-10.7847,14.6367-10.7847,21.5723c0,10.7871,8.4731,20.8027,11.5552,23.8828
			c7.7041,6.9355,7.7041,19.2598,0.7705,26.9668C398.7378,574.6777,393.3452,576.9883,388.7231,576.9883z"/>
	</g>
	<g>
		<path fill="#010101" d="M514.3047,576.9883c-4.623,0-9.2441-1.5391-13.0957-4.6211c-2.313-2.3125-23.1147-22.3438-23.1147-50.8496
			c0-12.3281,3.8516-30.8164,23.1147-49.3086c3.0801-3.082,10.0156-12.3281,9.2441-20.8008
			c-0.7715-6.9355-6.1641-13.8672-16.1812-21.5742c-8.4736-6.1641-10.7861-17.7188-4.6221-26.1934
			c6.1641-8.4761,17.7192-10.7881,26.1958-4.624c20.0312,13.8682,30.8184,30.8174,32.3574,50.0791
			c2.3125,28.5078-19.2598,48.5391-21.5703,50.8496c-7.7051,6.9336-10.7871,14.6367-10.7871,21.5723
			c0,10.7871,8.4746,20.8027,11.5547,23.8828c7.707,6.9355,7.707,19.2598,0.7715,26.9668
			C524.3203,574.6777,519.6973,576.9883,514.3047,576.9883z"/>
	</g>
	<g>
		<path fill="#010101" d="M639.8848,576.9883c-4.6211,0-9.2441-1.5391-13.0957-4.6211
			c-2.3125-2.3125-23.1133-22.3438-23.1133-50.8496c0-12.3281,3.8516-30.8164,23.1133-49.3086
			c3.0801-3.082,10.0156-12.3281,9.2441-20.8008c-0.7695-6.9355-6.1641-13.8672-16.1797-21.5742
			c-8.4727-6.1641-10.7852-17.7188-4.6211-26.1934c6.1641-8.4761,17.7188-10.7881,26.1953-4.624
			c20.0312,13.8682,30.8164,30.8174,32.3555,50.0791c2.3125,28.5078-19.2598,48.5391-21.5703,50.8496
			c-7.7051,6.9336-10.7852,14.6367-10.7852,21.5723c0,10.7871,8.4727,20.8027,11.5547,23.8828
			c7.7051,6.9355,7.7051,19.2598,0.7695,26.9668C649.9004,574.6777,645.2793,576.9883,639.8848,576.9883z"/>
	</g>
</g>
</svg>
