<?xml version="1.0" encoding="utf-8"?>
<!-- Generator: Adobe Illustrator 15.0.0, SVG Export Plug-In . SVG Version: 6.00 Build 0)  -->
<!DOCTYPE svg PUBLIC "-//W3C//DTD SVG 1.1//EN" "http://www.w3.org/Graphics/SVG/1.1/DTD/svg11.dtd">
<svg version="1.1" id="Layer_1" xmlns="http://www.w3.org/2000/svg" xmlns:xlink="http://www.w3.org/1999/xlink" x="0px" y="0px"
	 width="1000px" height="800px" viewBox="0 0 1000 800" enable-background="new 0 0 1000 800" xml:space="preserve">
<g>
	<path d="M794.6973,161.1738H209.3608c-28.4604,0-51.5352,23.0762-51.5352,51.5347v516.1118
		c0,28.459,23.0747,51.5332,51.5352,51.5332h585.3364c28.459,0,51.5332-23.0742,51.5332-51.5332V212.7085
		C846.2305,184.25,823.1562,161.1738,794.6973,161.1738z M756.2383,649.5947c0,20.7686-16.9209,38.46-38.458,38.46H285.5063
		c-20.7656,0-38.4575-16.9238-38.4575-38.46V355.7729c0-20.7681,16.9219-38.458,38.4575-38.458h432.2739
		c20.7676,0,38.458,16.9224,38.458,38.458V649.5947z M735.4707,265.0112H267.8169c-12.3076,0-22.3066-10-22.3066-22.3052
		c0-12.3076,9.999-22.3066,22.3066-22.3066h467.6538c12.3076,0,22.3066,9.999,22.3066,22.3066
		C757.7773,255.0112,747.7783,265.0112,735.4707,265.0112z"/>
	<path d="M750.8535,19.647H253.2021c-19.2285,0-35.3813,15.3833-35.3813,35.3813v85.3774h568.4146V55.0283
		C786.2354,35.7988,770.085,19.647,750.8535,19.647z M618.5586,111.9473h-0.7695c-15.3848,0-28.459-13.0752-28.459-28.459
		c0-15.3833,13.0742-28.46,28.459-28.46h0.7695c15.3828,0,28.457,13.0767,28.457,28.46
		C647.0156,98.8721,633.9414,111.9473,618.5586,111.9473z M717.0107,111.9473h-0.7695c-15.3838,0-28.459-13.0752-28.459-28.459
		c0-15.3833,13.0752-28.46,28.459-28.46h0.7695c15.3828,0,28.458,13.0767,28.458,28.46
		C745.4688,98.8721,732.3936,111.9473,717.0107,111.9473z"/>
</g>
</svg>
