<?xml version="1.0" encoding="utf-8"?>
<!-- Generator: Adobe Illustrator 18.1.1, SVG Export Plug-In . SVG Version: 6.00 Build 0)  -->
<svg version="1.1" id="Layer_1" xmlns="http://www.w3.org/2000/svg" xmlns:xlink="http://www.w3.org/1999/xlink" x="0px" y="0px"
	 viewBox="88 76 184 208" enable-background="new 88 76 184 208" xml:space="preserve">
<g>
	<path d="M206.9,177.8v44.6h-56.2v-44.6H206.9 M210.8,167.6h-63.9c-3.5,0-6.4,2.9-6.4,6.4v52.3c0,3.5,2.9,6.4,6.4,6.4h63.9
		c3.5,0,6.4-2.9,6.4-6.4v-52.3C217.1,170.4,214.3,167.6,210.8,167.6L210.8,167.6z"/>
	<g>
		<path d="M207.2,148.1h-9.1v-2.3c0-10.7-8.7-19.3-19.3-19.3c-10.7,0-19.3,8.7-19.3,19.3v18.8h-9.1v-18.8
			c0-15.7,12.8-28.4,28.4-28.4s28.4,12.8,28.4,28.4V148.1z"/>
	</g>
	<path d="M185.5,194.8c0-3.7-3-6.7-6.7-6.7c-3.7,0-6.7,3-6.7,6.7c0,2.4,1.2,4.4,3.1,5.6v9.4c0,1.3,1.1,2.4,2.4,2.4h2.4
		c1.3,0,2.4-1.1,2.4-2.4v-9.4C184.3,199.3,185.5,197.2,185.5,194.8z"/>
</g>
</svg>
